<svg viewBox="0 0 960 810" xmlns="http://www.w3.org/2000/svg" xmlns:xlink="http://www.w3.org/1999/xlink"><linearGradient id="a"><stop offset="0" stop-color="#fff"/><stop offset="1" stop-color="#fff" stop-opacity="0"/></linearGradient><linearGradient id="b" gradientTransform="matrix(.99333 -.12402 .11378 .9925 265.06 21.245)" gradientUnits="userSpaceOnUse" x1="717.91" x2="605.44" xlink:href="#a" y1="306.56" y2="167.14"/><filter id="c" color-interpolation-filters="sRGB" height="1.3594" width="1.2764" x="-.1382" y="-.17968"><feGaussianBlur stdDeviation="25.018287"/></filter><filter id="d" color-interpolation-filters="sRGB" height="1.3006" width="1.233" x="-.11649" y="-.1503"><feGaussianBlur stdDeviation="20.97932"/></filter><linearGradient id="e" gradientUnits="userSpaceOnUse" x1="861.59" x2="1093.29" y1="125.635" y2="383.635"><stop offset="0" stop-color="#86f390"/><stop offset="1" stop-color="#21ec2b"/></linearGradient><linearGradient id="f" gradientUnits="userSpaceOnUse" x1="735.59" x2="922.29" y1="208.635" y2="434.635"><stop offset="0" stop-color="#e4fada"/><stop offset=".49702" stop-color="#fff" stop-opacity="0"/><stop offset=".62148" stop-color="#fff" stop-opacity="0"/><stop offset="1" stop-color="#55ab7c"/></linearGradient><linearGradient id="g" gradientUnits="userSpaceOnUse" x1="819.77" x2="1162.89" y1="530.045" y2="10.049"><stop offset="0" stop-color="#26ba32"/><stop offset=".076393" stop-color="#30dd30"/><stop offset=".17965" stop-color="#48e255"/><stop offset=".29466" stop-color="#c9f2c9"/><stop offset=".41552" stop-color="#67e46a"/><stop offset=".77632" stop-color="#2de03e"/><stop offset="1" stop-color="#2bb72b"/></linearGradient><linearGradient id="h" gradientUnits="userSpaceOnUse" x1="591.77" x2="832.89" y1="144.045" y2="380.045"><stop offset="0" stop-color="#61c84f"/><stop offset="1" stop-color="#32b42a" stop-opacity="0"/></linearGradient><linearGradient id="i" gradientUnits="userSpaceOnUse" x1="254.28" x2="650.31" y1="645.62" y2="389.62"><stop offset="0" stop-color="#014521"/><stop offset="1"/></linearGradient><clipPath id="j"><path d="m350.52 630.38-51.518 126.27 189.91-184.86 246.48-102.03 38.386-331.33v-28.284c-1.28-51.07-23.36-72.126-75.76-66.673l-536.39 54.548c-96.218 17.125-102.64 48.985-87.889 131.32l92.934 394.97c13.87 51.939 40.661 64.67 93.944 42.426z"/></clipPath><filter id="k" color-interpolation-filters="sRGB"><feGaussianBlur stdDeviation="14.69097"/></filter><linearGradient id="l" gradientTransform="matrix(1.0135 -.18611 .14962 1.2607 223.94 -108.06)" gradientUnits="userSpaceOnUse" x1="447.9" x2="479.75" y1="419.45" y2="127.71"><stop offset="0" stop-color="#fff" stop-opacity=".40881"/><stop offset="1" stop-color="#fff" stop-opacity="0"/></linearGradient><filter id="m" color-interpolation-filters="sRGB" height="1.3351" width="1.2873" x="-.14365" y="-.16756"><feGaussianBlur stdDeviation="32.395616"/></filter><linearGradient id="n" gradientUnits="userSpaceOnUse" x1="800.6" x2="715.19" y1="22.445" y2="551.745"><stop offset="0" stop-color="#8de3e3"/><stop offset="1" stop-color="#48d2d2"/></linearGradient><linearGradient id="o" gradientUnits="userSpaceOnUse" x1="565.07" x2="747.47" xlink:href="#a" y1="101.555" y2="292.525"/><linearGradient id="p" gradientUnits="userSpaceOnUse" x1="639.33" x2="448.93" y1="561.455" y2="721.455"><stop offset="0" stop-color="#2aaaaa"/><stop offset=".14128" stop-color="#59b4b4"/><stop offset=".29345" stop-color="#55d5d5"/><stop offset=".41199" stop-color="#c9f2f2"/><stop offset=".57681" stop-color="#86dada"/><stop offset=".8658" stop-color="#62dcdc"/><stop offset="1" stop-color="#50c4c4"/></linearGradient><linearGradient id="q" gradientUnits="userSpaceOnUse" x1="636.83" x2="661.43" y1="588.955" y2="655.455"><stop offset="0" stop-color="#2a3b50" stop-opacity=".5283"/><stop offset="1" stop-color="#3a4d29" stop-opacity="0"/></linearGradient><linearGradient id="r" gradientUnits="userSpaceOnUse" x1="519.08" x2="1054.13" y1="592.795" y2="-41.578"><stop offset="0" stop-color="#119b9b"/><stop offset=".070526" stop-color="#25c5c5"/><stop offset=".29345" stop-color="#78e8e8"/><stop offset=".41199" stop-color="#c9f2f2"/><stop offset=".57681" stop-color="#63d9d9"/><stop offset=".8658" stop-color="#68eeee"/><stop offset="1" stop-color="#1ca5a5"/></linearGradient><linearGradient id="s" gradientUnits="userSpaceOnUse" x1="407.438" x2="942.37" y1="68.275" y2="540.275"><stop offset="0" stop-color="#2a3b50" stop-opacity=".21759"/><stop offset="1" stop-color="#3a4d29" stop-opacity="0"/></linearGradient><filter id="t" color-interpolation-filters="sRGB"><feGaussianBlur stdDeviation="19.935655"/></filter><linearGradient id="u" gradientUnits="userSpaceOnUse" x1="776.27" x2="691.42" y1="704.485" y2="88.835"><stop offset="0" stop-color="#076583"/><stop offset="1" stop-color="#53c4dd" stop-opacity=".21459"/></linearGradient><g transform="translate(-312.37 100.72)"><path d="m1000.1-48.218c-7.5182-.03429-15.456.31031-23.75 1.125l-530.14 47.125c-87.8 10.151-101.88 50.957-83.97 126.56l91.094 374.62c12.285 38.27 35.468 63.381 50.906 77.875 2.1241 2.3745 4.4025 4.4424 6.8125 6.2188.49267.43993 1.1055.99876 1.5625 1.4062l.25-.15625c15.608 10.238 37.149 8.7745 67-3.6875l29.156-11.812-23.688 60.719 32.906 41 189.91-184.88 214.06-88.594 128.59 25.969-35.375-72.125 33.969-14.156c53.809-23.142 58.066-35.806 65.625-96.156l12.156-131.53c4.8828-44.615 2.2275-67.439-17.406-75.375-19.36-10.374-58.96-18.521-89.812-13.594l-26.938 4.1562v-.21875c-.6075-24.314-5.9327-41.852-17-52.937-1.4825-1.5376-3.2583-3.0364-5.3125-4.5-.019-.01345-.044-.01783-.062-.03125-13.261-9.4192-38.033-16.883-70.531-17.031z" fill="url(#u)" filter="url(#t)" opacity=".68773"/><g stroke-width="2"><path d="m632.47 511.04-47.13 120.73 32.9 41.004 159.45-217.75 249.65-97.551 38.88-316.8 12.143-64.544c-10.7-14.896-48.9-28.427-101.94-23.213l-530.17 47.105c-87.79 10.152-101.87 50.966-83.96 126.57l91.1 374.62c14.807 46.126 45.478 73.198 59.293 85.517z" fill="url(#r)" stroke="url(#s)"/><path d="m632.46 511.03-47.125 120.75 32.906 41 136.69-186.66z" fill="url(#p)" stroke="url(#q)"/><path d="m669.76 546.5-51.52 126.27 189.91-184.86 246.45-102.02 38.386-331.33v-28.284c-1.2761-51.067-23.357-72.123-75.761-66.67l-536.34 54.54c-96.21 17.125-102.63 48.982-87.88 131.32l92.934 394.97c13.87 51.939 40.661 64.67 93.944 42.426z" fill="url(#n)" stroke="url(#o)"/></g><path d="m979.36 8.6253-501 55c-24.448 2.6839-42.587 37.542-40 62l86 347-17-318c-.84892-15.88 21.517-40.37 37-44z" fill="#fff" filter="url(#m)" opacity=".46429"/><path d="m1031.2-41.218c-4.3877.04237-9.0558.30126-13.969.8125l-536.34 54.563c-96.212 17.124-102.63 48.974-87.875 131.31l62.876 265.24c89.11-272.29 487.45-344.83 637.14-356.15v-28.281c-1.1564-46.28-19.398-67.91-61.812-67.5z" fill="url(#l)" opacity=".8"/><path clip-path="url(#j)" d="m820.64 116.74c-6.8441.00017-13.551.45366-19.906 1.4688l-459.96 70.91c-101.86 21.02-115.11 49.04-97.91 142.66l33.25 189.5c6.2532 50.86 59.554 90.725 73.719 93.625 15.59 7.0588 37.297 3.3242 67.375-7.4688l274.34-114.56 140 28.281-35.344-72.125 33.938-14.125c53.809-23.142 58.066-35.837 65.625-96.188l12.156-131.5c.001-.0105-.001-.0207 0-.0312.0861-.78668.16865-1.5393.25-2.3125.10567-1.0049.21503-2.0178.3125-3 .0317-.3197.0629-.62019.0937-.9375.13831-1.4219.25489-2.782.375-4.1562.0539-.61552.10616-1.2065.15625-1.8125.0875-1.0576.1742-2.0649.25-3.0938.0652-.88373.13112-1.731.1875-2.5938.0468-.71563.0844-1.3925.125-2.0938.0657-1.1327.10712-2.2168.15625-3.3125.0593-1.3215.12197-2.6069.15625-3.875.0112-.41414.0228-.8415.0312-1.25.002-.107-.002-.20589 0-.3125.0112-.58543-.005-1.1449 0-1.7188.008-.79423.0348-1.6028.0312-2.375-.0007-.15.001-.28832 0-.4375-.002-.21472-.0288-.41199-.0312-.625-.0159-1.3483-.0413-2.6572-.0937-3.9375-.0533-1.3016-.12632-2.5801-.21875-3.8125-.0118-.15769-.0188-.31218-.0312-.46875-.0145-.1831-.0471-.34969-.0625-.53125-.0996-1.1697-.20607-2.2997-.34375-3.4062-.004-.0307.004-.0631 0-.0937-.003-.0209.003-.0416 0-.0625-.0651-.51532-.14512-1.0295-.21875-1.5312-.0153-.10439-.0156-.20869-.0312-.3125-.11982-.7938-.26439-1.584-.40625-2.3438-.16413-.87901-.33685-1.7286-.53125-2.5625-.0291-.12484-.064-.25116-.0937-.375-.008-.0327-.0233-.0611-.0312-.0937-.0207-.0853-.0415-.16515-.0625-.25-.19573-.79007-.40028-1.5635-.625-2.3125-.0121-.0403-.0191-.0848-.0312-.125-.0618-.20377-.12354-.39301-.1875-.59375-.21967-.69121-.44144-1.3444-.6875-2-.26359-.70235-.54916-1.3692-.84375-2.0312-.0588-.13213-.0962-.27572-.15625-.40625-.0654-.14234-.15185-.2658-.21875-.40625-.26976-.5661-.54938-1.1206-.84375-1.6562-.0338-.0615-.0596-.12638-.0937-.1875-.0712-.12753-.14616-.2492-.21875-.375-.13382-.23174-.26753-.46162-.40625-.6875-.1152-.18775-.22515-.37877-.34375-.5625-.10206-.158-.2079-.31371-.3125-.46875-.16611-.24645-.32743-.47974-.5-.71875-.0616-.0854-.12504-.16555-.1875-.25-.21515-.29078-.43119-.59538-.65625-.875-.0232-.0288-.0392-.0651-.0625-.0937-.27701-.3412-.5829-.64415-.875-.96875-.24116-.26818-.46716-.5243-.71875-.78125-.0738-.0755-.14409-.14424-.21875-.21875-.33618-.33552-.67657-.65261-1.0312-.96875-.15391-.13728-.31131-.2726-.46875-.40625-.19739-.16759-.39078-.33808-.59375-.5-.10367-.0827-.20736-.16877-.3125-.25-.27006-.2086-.5327-.39481-.8125-.59375-.0428-.0305-.082-.0635-.125-.0937-.3322-.23316-.68531-.46768-1.0312-.6875-.32446-.20597-.6633-.43065-1-.625-.0789-.0455-.17043-.0801-.25-.125-.2787-.15724-.5567-.31926-.84375-.46875-.14679-.0765-.28851-.14428-.4375-.21875-.21525-.10757-.43639-.20912-.65625-.3125-.22467-.10547-.45799-.21138-.6875-.3125-.15634-.0689-.31015-.15184-.46875-.21875-.10988-.0463-.23278-.0796-.34375-.125-.0205-.011-.0419-.0202-.0625-.0312-15.36-8.2505-43.525-15.094-69.938-15.094z" fill="url(#i)" filter="url(#k)" opacity=".5" transform="translate(319.24 -83.875)"/><path d="m660.01 93.256c-101.86 21.024-115.11 49.024-97.91 142.63l33.245 189.5c6.6085 53.75 65.798 95.263 75.768 93.794l498.39-289.94 45.4-190.17c-16.575-11.764-61.02-22.133-94.916-16.72z" fill="url(#g)" stroke="url(#h)" stroke-width="2"/><path d="m705.32 112.74c-93.44 20.724-114.77 56.213-98.995 148.49l31.113 195.16c10.848 69.756 37.239 77.314 98.995 55.154l274.36-114.55 140.01 28.284-35.355-72.125 33.941-14.142c53.809-23.142 58.08-35.816 65.64-96.167l12.142-131.52c7.4995-68.525-2.7701-85.647-65.054-76.368z" fill="url(#e)" stroke="url(#f)" stroke-width="2"/><path d="m1071.2 95.125-391.96 65.005c-24.263 4.0232-42.587 37.542-40 62l47 208 11-180c.97001-15.873 10.901-35.01 26-40z" fill="#caf9d0" filter="url(#d)" opacity=".21429"/><path d="m1018 82.013-389.78 120.19c-23.227 7.1628-46.668 38.046-40 62l10.142 145.97 39.373-126.57c4.733-15.215 11.538-33.753 26-40z" fill="#fff" filter="url(#c)" opacity=".18254" transform="matrix(-.84155 .013232 .016415 -.94284 1668.1 488.34)"/><path d="m1187.6 32.625c-7.3227.0654-15.768.89377-25.5 2.3438l-456.77 77.781c-93.44 20.724-114.78 56.189-99 148.47l28.174 171.45c9.6396-229.69 482.12-338.4 592.67-321.36 6.3277-57.818-.02-79.041-39.562-78.688z" fill="url(#b)" opacity=".5"/></g></svg>
